  0
SECTION
  2
HEADER
  9
$ACADVER
  1
AC1024
  9
$ACADMAINTVER
 70
     6
  9
$DWGCODEPAGE
  3
UNDEFINED
  9
$INSBASE
 10
0.0
 20
0.0
 30
0.0
  9
$EXTMIN
 10
1.000000000000000E+20
 20
1.000000000000000E+20
 30
1.000000000000000E+20
  9
$EXTMAX
 10
-1.000000000000000E+20
 20
-1.000000000000000E+20
 30
-1.000000000000000E+20
  9
$LIMMIN
 10
0.0
 20
0.0
  9
$LIMMAX
 10
12.0
 20
9.0
  9
$ORTHOMODE
 70
     0
  9
$REGENMODE
 70
     1
  9
$FILLMODE
 70
     1
  9
$QTEXTMODE
 70
     0
  9
$MIRRTEXT
 70
     1
  9
$LTSCALE
 40
1.0
  9
$ATTMODE
 70
     1
  9
$TEXTSIZE
 40
0.2
  9
$TRACEWID
 40
0.05
  9
$TEXTSTYLE
  7
Standard
  9
$CLAYER
  8
0
  9
$CELTYPE
  6
ByLayer
  9
$CECOLOR
 62
   256
  9
$CELTSCALE
 40
1.0
  9
$DISPSILH
 70
     0
  9
$DIMSCALE
 40
1.0
  9
$DIMASZ
 40
0.18
  9
$DIMEXO
 40
0.0625
  9
$DIMDLI
 40
0.38
  9
$DIMRND
 40
0.0
  9
$DIMDLE
 40
0.0
  9
$DIMEXE
 40
0.18
  9
$DIMTP
 40
0.0
  9
$DIMTM
 40
0.0
  9
$DIMTXT
 40
0.18
  9
$DIMCEN
 40
0.09
  9
$DIMTSZ
 40
0.0
  9
$DIMTOL
 70
     0
  9
$DIMLIM
 70
     0
  9
$DIMTIH
 70
     1
  9
$DIMTOH
 70
     1
  9
$DIMSE1
 70
     0
  9
$DIMSE2
 70
     0
  9
$DIMTAD
 70
     0
  9
$DIMZIN
 70
     0
  9
$DIMBLK
  1

  9
$DIMASO
 70
     1
  9
$DIMSHO
 70
     1
  9
$DIMPOST
  1

  9
$DIMAPOST
  1

  9
$DIMALT
 70
     0
  9
$DIMALTD
 70
     2
  9
$DIMALTF
 40
25.4
  9
$DIMLFAC
 40
1.0
  9
$DIMTOFL
 70
     0
  9
$DIMTVP
 40
0.0
  9
$DIMTIX
 70
     0
  9
$DIMSOXD
 70
     0
  9
$DIMSAH
 70
     0
  9
$DIMBLK1
  1

  9
$DIMBLK2
  1

  9
$DIMSTYLE
  2
Standard
  9
$DIMCLRD
 70
     0
  9
$DIMCLRE
 70
     0
  9
$DIMCLRT
 70
     0
  9
$DIMTFAC
 40
1.0
  9
$DIMGAP
 40
0.09
  9
$DIMJUST
 70
     0
  9
$DIMSD1
 70
     0
  9
$DIMSD2
 70
     0
  9
$DIMTOLJ
 70
     1
  9
$DIMTZIN
 70
     0
  9
$DIMALTZ
 70
     0
  9
$DIMALTTZ
 70
     0
  9
$DIMUPT
 70
     0
  9
$DIMDEC
 70
     4
  9
$DIMTDEC
 70
     4
  9
$DIMALTU
 70
     2
  9
$DIMALTTD
 70
     2
  9
$DIMTXSTY
  7
Standard
  9
$DIMAUNIT
 70
     0
  9
$DIMADEC
 70
     0
  9
$DIMALTRND
 40
0.0
  9
$DIMAZIN
 70
     0
  9
$DIMDSEP
 70
    46
  9
$DIMATFIT
 70
     3
  9
$DIMFRAC
 70
     0
  9
$DIMLDRBLK
  1

  9
$DIMLUNIT
 70
     2
  9
$DIMLWD
 70
    -2
  9
$DIMLWE
 70
    -2
  9
$DIMTMOVE
 70
     0
  9
$DIMFXL
 40
1.0
  9
$DIMFXLON
 70
     0
  9
$DIMJOGANG
 40
0.7853981633974483
  9
$DIMTFILL
 70
     0
  9
$DIMTFILLCLR
 70
     0
  9
$DIMARCSYM
 70
     0
  9
$DIMLTYPE
  6

  9
$DIMLTEX1
  6

  9
$DIMLTEX2
  6

  9
$DIMTXTDIRECTION
 70
     0
  9
$LUNITS
 70
     2
  9
$LUPREC
 70
     4
  9
$SKETCHINC
 40
0.1
  9
$FILLETRAD
 40
0.5
  9
$AUNITS
 70
     0
  9
$AUPREC
 70
     0
  9
$MENU
  1
.
  9
$ELEVATION
 40
0.0
  9
$PELEVATION
 40
0.0
  9
$THICKNESS
 40
0.0
  9
$LIMCHECK
 70
     0
  9
$CHAMFERA
 40
0.5
  9
$CHAMFERB
 40
0.5
  9
$CHAMFERC
 40
1.0
  9
$CHAMFERD
 40
0.0
  9
$SKPOLY
 70
     0
  9
$TDCREATE
 40
2458310.616956007
  9
$TDUCREATE
 40
2458310.575289352
  9
$TDUPDATE
 40
2458310.616956007
  9
$TDUUPDATE
 40
2458310.575289352
  9
$TDINDWG
 40
0.0000000116
  9
$TDUSRTIMER
 40
0.0000000116
  9
$USRTIMER
 70
     1
  9
$ANGBASE
 50
0.0
  9
$ANGDIR
 70
     0
  9
$PDMODE
 70
     0
  9
$PDSIZE
 40
0.0
  9
$PLINEWID
 40
0.0
  9
$SPLFRAME
 70
     0
  9
$SPLINETYPE
 70
     6
  9
$SPLINESEGS
 70
     8
  9
$HANDSEED
  5
5F
  9
$SURFTAB1
 70
     6
  9
$SURFTAB2
 70
     6
  9
$SURFTYPE
 70
     6
  9
$SURFU
 70
     6
  9
$SURFV
 70
     6
  9
$UCSBASE
  2

  9
$UCSNAME
  2

  9
$UCSORG
 10
0.0
 20
0.0
 30
0.0
  9
$UCSXDIR
 10
1.0
 20
0.0
 30
0.0
  9
$UCSYDIR
 10
0.0
 20
1.0
 30
0.0
  9
$UCSORTHOREF
  2

  9
$UCSORTHOVIEW
 70
     0
  9
$UCSORGTOP
 10
0.0
 20
0.0
 30
0.0
  9
$UCSORGBOTTOM
 10
0.0
 20
0.0
 30
0.0
  9
$UCSORGLEFT
 10
0.0
 20
0.0
 30
0.0
  9
$UCSORGRIGHT
 10
0.0
 20
0.0
 30
0.0
  9
$UCSORGFRONT
 10
0.0
 20
0.0
 30
0.0
  9
$UCSORGBACK
 10
0.0
 20
0.0
 30
0.0
  9
$PUCSBASE
  2

  9
$PUCSNAME
  2

  9
$PUCSORG
 10
0.0
 20
0.0
 30
0.0
  9
$PUCSXDIR
 10
1.0
 20
0.0
 30
0.0
  9
$PUCSYDIR
 10
0.0
 20
1.0
 30
0.0
  9
$PUCSORTHOREF
  2

  9
$PUCSORTHOVIEW
 70
     0
  9
$PUCSORGTOP
 10
0.0
 20
0.0
 30
0.0
  9
$PUCSORGBOTTOM
 10
0.0
 20
0.0
 30
0.0
  9
$PUCSORGLEFT
 10
0.0
 20
0.0
 30
0.0
  9
$PUCSORGRIGHT
 10
0.0
 20
0.0
 30
0.0
  9
$PUCSORGFRONT
 10
0.0
 20
0.0
 30
0.0
  9
$PUCSORGBACK
 10
0.0
 20
0.0
 30
0.0
  9
$USERI1
 70
     0
  9
$USERI2
 70
     0
  9
$USERI3
 70
     0
  9
$USERI4
 70
     0
  9
$USERI5
 70
     0
  9
$USERR1
 40
0.0
  9
$USERR2
 40
0.0
  9
$USERR3
 40
0.0
  9
$USERR4
 40
0.0
  9
$USERR5
 40
0.0
  9
$WORLDVIEW
 70
     1
  9
$SHADEDGE
 70
     3
  9
$SHADEDIF
 70
    70
  9
$TILEMODE
 70
     1
  9
$MAXACTVP
 70
    64
  9
$PINSBASE
 10
0.0
 20
0.0
 30
0.0
  9
$PLIMCHECK
 70
     0
  9
$PEXTMIN
 10
1.000000000000000E+20
 20
1.000000000000000E+20
 30
1.000000000000000E+20
  9
$PEXTMAX
 10
-1.000000000000000E+20
 20
-1.000000000000000E+20
 30
-1.000000000000000E+20
  9
$PLIMMIN
 10
0.0
 20
0.0
  9
$PLIMMAX
 10
12.0
 20
9.0
  9
$UNITMODE
 70
     0
  9
$VISRETAIN
 70
     1
  9
$PLINEGEN
 70
     0
  9
$PSLTSCALE
 70
     1
  9
$TREEDEPTH
 70
  3020
  9
$CMLSTYLE
  2
Standard
  9
$CMLJUST
 70
     0
  9
$CMLSCALE
 40
1.0
  9
$PROXYGRAPHICS
 70
     1
  9
$MEASUREMENT
 70
     0
  9
$CELWEIGHT
370
    -1
  9
$ENDCAPS
280
     0
  9
$JOINSTYLE
280
     0
  9
$LWDISPLAY
290
     1
  9
$INSUNITS
 70
     1
  9
$HYPERLINKBASE
  1

  9
$STYLESHEET
  1

  9
$XEDIT
290
     1
  9
$CEPSNTYPE
380
     0
  9
$PSTYLEMODE
290
     1
  9
$FINGERPRINTGUID
  2
{F40D70B6-57A2-3109-97F3-ECCC2DF355F4}
  9
$VERSIONGUID
  2
{FAEB1C32-E019-11D5-929B-00C0DF256EC4}
  9
$EXTNAMES
290
     1
  9
$PSVPSCALE
 40
0.0
  9
$OLESTARTUP
290
     0
  9
$SORTENTS
280
   127
  9
$INDEXCTL
280
     0
  9
$HIDETEXT
280
     1
  9
$XCLIPFRAME
280
     2
  9
$HALOGAP
280
     0
  9
$OBSCOLOR
 70
   257
  9
$OBSLTYPE
280
     0
  9
$INTERSECTIONDISPLAY
280
     0
  9
$INTERSECTIONCOLOR
 70
   257
  9
$DIMASSOC
280
     2
  9
$PROJECTNAME
  1

  9
$CAMERADISPLAY
290
     0
  9
$LENSLENGTH
 40
50.0
  9
$CAMERAHEIGHT
 40
0.0
  9
$STEPSPERSEC
 40
2.0
  9
$STEPSIZE
 40
6.0
  9
$3DDWFPREC
 40
2.0
  9
$PSOLWIDTH
 40
0.25
  9
$PSOLHEIGHT
 40
4.0
  9
$LOFTANG1
 40
1.570796326794897
  9
$LOFTANG2
 40
1.570796326794897
  9
$LOFTMAG1
 40
0.0
  9
$LOFTMAG2
 40
0.0
  9
$LOFTPARAM
 70
     7
  9
$LOFTNORMALS
280
     1
  9
$LATITUDE
 40
37.795
  9
$LONGITUDE
 40
-122.394
  9
$NORTHDIRECTION
 40
0.0
  9
$TIMEZONE
 70
 -8000
  9
$LIGHTGLYPHDISPLAY
280
     1
  9
$TILEMODELIGHTSYNCH
280
     1
  9
$CMATERIAL
347
3C
  9
$SOLIDHIST
280
     1
  9
$SHOWHIST
280
     1
  9
$DWFFRAME
280
     2
  9
$DGNFRAME
280
     2
  9
$REALWORLDSCALE
290
     1
  9
$INTERFERECOLOR
 62
   256
  9
$CSHADOW
280
     0
  9
$SHADOWPLANELOCATION
 40
0.0
  0
ENDSEC
  0
SECTION
  2
CLASSES
  0
CLASS
  1
ACDBDICTIONARYWDFLT
  2
AcDbDictionaryWithDefault
  3
ObjectDBX Classes
 90
        0
 91
        4
280
     0
281
     0
  0
CLASS
  1
VISUALSTYLE
  2
AcDbVisualStyle
  3
ObjectDBX Classes
 90
     4095
 91
        4
280
     0
281
     0
  0
CLASS
  1
MATERIAL
  2
AcDbMaterial
  3
ObjectDBX Classes
 90
     1153
 91
        4
280
     0
281
     0
  0
CLASS
  1
SUN
  2
AcDbSun
  3
SCENEOE
 90
     1024
 91
        4
280
     0
281
     0
  0
ENDSEC
  0
SECTION
  2
TABLES
  0
TABLE
  2
VPORT
  5
8
330
0
100
AcDbSymbolTable
 70
     1
  0
VPORT
  5
29
330
8
100
AcDbSymbolTableRecord
100
AcDbViewportTableRecord
  2
*Active
 70
     0
 10
0.0
 20
0.0
 11
1.0
 21
1.0
 12
0.0
 22
0.0
 13
0.0
 23
0.0
 14
0.5
 24
0.5
 15
0.5
 25
0.5
 16
0.0
 26
0.0
 36
1.0
 17
1.340555555220416
 27
-1.464027777411771
 37
0.0
 40
2.928055554823541
 41
0.9156626506024096
 42
50.0
 43
0.0
 44
0.0
 50
0.0
 51
0.0
 71
     0
 72
   100
 73
     1
 74
     3
 75
     0
 76
     0
 77
     0
 78
     0
281
     0
 65
     1
110
0.0
120
0.0
130
0.0
111
1.0
121
0.0
131
0.0
112
0.0
122
1.0
132
0.0
 79
     0
146
0.0
 60
     3
 61
     5
292
     1
282
     1
141
0.0
142
0.0
 63
   250
361
3F
  0
ENDTAB
  0
TABLE
  2
LTYPE
  5
5
330
0
100
AcDbSymbolTable
 70
     1
  0
LTYPE
  5
14
330
5
100
AcDbSymbolTableRecord
100
AcDbLinetypeTableRecord
  2
ByBlock
 70
     0
  3

 72
    65
 73
     0
 40
0.0
  0
LTYPE
  5
15
330
5
100
AcDbSymbolTableRecord
100
AcDbLinetypeTableRecord
  2
ByLayer
 70
     0
  3

 72
    65
 73
     0
 40
0.0
  0
LTYPE
  5
16
330
5
100
AcDbSymbolTableRecord
100
AcDbLinetypeTableRecord
  2
Continuous
 70
     0
  3
Solid line
 72
    65
 73
     0
 40
0.0
  0
ENDTAB
  0
TABLE
  2
LAYER
  5
2
330
0
100
AcDbSymbolTable
 70
     2
  0
LAYER
  5
10
330
2
100
AcDbSymbolTableRecord
100
AcDbLayerTableRecord
  2
0
 70
     0
 62
     7
  6
Continuous
370
    -3
390
F
347
3E
  0
LAYER
  5
40
330
2
100
AcDbSymbolTableRecord
100
AcDbLayerTableRecord
  2
Calque 1
 70
     0
 62
     7
  6
Continuous
370
    -3
390
F
347
3E
  0
ENDTAB
  0
TABLE
  2
STYLE
  5
3
330
0
100
AcDbSymbolTable
 70
     1
  0
STYLE
  5
11
330
3
100
AcDbSymbolTableRecord
100
AcDbTextStyleTableRecord
  2
Standard
 70
     0
 40
0.0
 41
1.0
 50
0.0
 71
     0
 42
0.2
  3
txt
  4

  0
ENDTAB
  0
TABLE
  2
VIEW
  5
6
330
0
100
AcDbSymbolTable
 70
     0
  0
ENDTAB
  0
TABLE
  2
UCS
  5
7
330
0
100
AcDbSymbolTable
 70
     0
  0
ENDTAB
  0
TABLE
  2
APPID
  5
9
330
0
100
AcDbSymbolTable
 70
     1
  0
APPID
  5
12
330
9
100
AcDbSymbolTableRecord
100
AcDbRegAppTableRecord
  2
ACAD
 70
     0
  0
ENDTAB
  0
TABLE
  2
DIMSTYLE
  5
A
330
0
100
AcDbSymbolTable
 70
     1
100
AcDbDimStyleTable
  0
DIMSTYLE
105
27
330
A
100
AcDbSymbolTableRecord
100
AcDbDimStyleTableRecord
  2
Standard
 70
     0
178
     0
340
11
  0
ENDTAB
  0
TABLE
  2
BLOCK_RECORD
  5
1
330
0
100
AcDbSymbolTable
 70
     2
  0
BLOCK_RECORD
  5
1F
330
1
100
AcDbSymbolTableRecord
100
AcDbBlockTableRecord
  2
*Model_Space
340
22
 70
     0
280
     1
281
     0
  0
BLOCK_RECORD
  5
1B
330
1
100
AcDbSymbolTableRecord
100
AcDbBlockTableRecord
  2
*Paper_Space
340
1E
 70
     0
280
     1
281
     0
  0
BLOCK_RECORD
  5
23
330
1
100
AcDbSymbolTableRecord
100
AcDbBlockTableRecord
  2
*Paper_Space0
340
26
 70
     0
280
     1
281
     0
  0
BLOCK_RECORD
  5
41
330
1
100
AcDbSymbolTableRecord
100
AcDbBlockTableRecord
  2
block 2
340
0
102
{BLKREFS
331
42
102
}
 70
     0
280
     1
281
     0
  0
ENDTAB
  0
ENDSEC
  0
SECTION
  2
BLOCKS
  0
BLOCK
  5
20
330
1F
100
AcDbEntity
  8
0
100
AcDbBlockBegin
  2
*Model_Space
 70
     0
 10
0.0
 20
0.0
 30
0.0
  3
*Model_Space
  1

  0
ENDBLK
  5
21
330
1F
100
AcDbEntity
  8
0
100
AcDbBlockEnd
  0
BLOCK
  5
1C
330
1B
100
AcDbEntity
 67
     1
  8
0
100
AcDbBlockBegin
  2
*Paper_Space
 70
     0
 10
0.0
 20
0.0
 30
0.0
  3
*Paper_Space
  1

  0
ENDBLK
  5
1D
330
1B
100
AcDbEntity
 67
     1
  8
0
100
AcDbBlockEnd
  0
BLOCK
  5
24
330
23
100
AcDbEntity
  8
0
100
AcDbBlockBegin
  2
*Paper_Space0
 70
     0
 10
0.0
 20
0.0
 30
0.0
  3
*Paper_Space0
  1

  0
ENDBLK
  5
25
330
23
100
AcDbEntity
  8
0
100
AcDbBlockEnd
  0
BLOCK
  5
43
330
41
100
AcDbEntity
  8
0
100
AcDbBlockBegin
  2
block 2
 70
     0
 10
0.0
 20
0.0
 30
0.0
  3
block 2
  1

  0
SPLINE
  5
45
330
41
100
AcDbEntity
  8
Calque 1
370
     0
100
AcDbSpline
210
0.0
220
0.0
230
1.0
 70
    11
 71
     3
 72
    32
 73
    28
 74
     0
 42
0.0000000001
 43
0.0000000001
 12
1.0
 22
0.0
 32
0.0
 13
1.0
 23
0.0
 33
0.0
 40
0.0
 40
0.0
 40
0.0
 40
0.0
 40
1.0
 40
1.0
 40
1.0
 40
2.0
 40
2.0
 40
2.0
 40
3.0
 40
3.0
 40
3.0
 40
4.0
 40
4.0
 40
4.0
 40
5.0
 40
5.0
 40
5.0
 40
6.0
 40
6.0
 40
6.0
 40
7.0
 40
7.0
 40
7.0
 40
8.0
 40
8.0
 40
8.0
 40
9.0
 40
9.0
 40
9.0
 40
9.0
 10
0.4960594956393548
 20
-1.148504861146511
 30
0.0
 10
0.4960594956393548
 20
-1.148504861146511
 30
0.0
 10
0.2481431789090971
 20
-1.148504861146511
 30
0.0
 10
0.2481431789090971
 20
-1.148504861146511
 30
0.0
 10
0.2382405890893297
 20
-1.148504861146511
 30
0.0
 10
0.2290606734773323
 20
-1.143348483015507
 30
0.0
 10
0.2239238270816642
 20
-1.134891241611248
 30
0.0
 10
0.2187674489506605
 20
-1.126414468471652
 30
0.0
 10
0.2184158777144593
 20
-1.115886863120857
 30
0.0
 10
0.2229863037851064
 20
-1.107097582215732
 30
0.0
 10
0.2229863037851064
 20
-1.107097582215732
 30
0.0
 10
0.3516613762360116
 20
-0.8591812654854744
 30
0.0
 10
0.3516613762360116
 20
-0.8591812654854744
 30
0.0
 10
0.3566224370135631
 20
-0.8496693103726114
 30
0.0
 10
0.3664273681565883
 20
-0.8435949406804175
 30
0.0
 10
0.3772479495375459
 20
-0.8439074484459154
 30
0.0
 10
0.3879904039771289
 20
-0.8440637023286964
 30
0.0
 10
0.3977172081788117
 20
-0.8502747941683036
 30
0.0
 10
0.4023657611908333
 20
-0.8599625348992832
 30
0.0
 10
0.4023657611908333
 20
-0.8599625348992832
 30
0.0
 10
0.5216070054702179
 20
-1.107878851629541
 30
0.0
 10
0.5216070054702179
 20
-1.107878851629541
 30
0.0
 10
0.5258258603046638
 20
-1.116668132534634
 30
0.0
 10
0.5252399082443393
 20
-1.127000420532009
 30
0.0
 10
0.520063998378
 20
-1.135242812847449
 30
0.0
 10
0.514868556776293
 20
-1.143504736898256
 30
0.0
 10
0.5058058315763733
 20
-1.148504861146511
 30
0.0
 10
0.4960594956393548
 20
-1.148504861146511
 30
0.0
  0
POLYLINE
  5
46
330
41
100
AcDbEntity
  8
Calque 1
370
     0
100
AcDb2dPolyline
 66
     1
 10
0.0
 20
0.0
 30
0.0
  0
VERTEX
  5
47
330
46
100
AcDbEntity
  8
Calque 1
370
     0
100
AcDbVertex
100
AcDb2dVertex
 10
0.2947849629122218
 20
-1.091823765176205
 30
0.0
  0
VERTEX
  5
48
330
46
100
AcDbEntity
  8
Calque 1
370
     0
100
AcDbVertex
100
AcDb2dVertex
 10
0.4509607187284481
 20
-1.091823765176205
 30
0.0
  0
VERTEX
  5
49
330
46
100
AcDbEntity
  8
Calque 1
370
     0
100
AcDbVertex
100
AcDb2dVertex
 10
0.3758611963280769
 20
-0.9356480093599789
 30
0.0
  0
VERTEX
  5
4A
330
46
100
AcDbEntity
  8
Calque 1
370
     0
100
AcDbVertex
100
AcDb2dVertex
 10
0.2947849629122218
 20
-1.091823765176205
 30
0.0
  0
SEQEND
  5
4B
330
46
100
AcDbEntity
  8
Calque 1
370
     0
  0
HATCH
  5
4C
330
41
100
AcDbEntity
  8
Calque 1
 62
     7
420
 16777215
100
AcDbHatch
 10
0.0
 20
0.0
 30
0.0
210
0.0
220
0.0
230
1.0
  2
SOLID
 70
     1
 71
     0
 91
        2
 92
        1
 93
        1
 72
     4
 94
        3
 73
     0
 74
     1
 95
       32
 96
       28
 40
0.0
 40
0.0
 40
0.0
 40
0.0
 40
1.0
 40
1.0
 40
1.0
 40
2.0
 40
2.0
 40
2.0
 40
3.0
 40
3.0
 40
3.0
 40
4.0
 40
4.0
 40
4.0
 40
5.0
 40
5.0
 40
5.0
 40
6.0
 40
6.0
 40
6.0
 40
7.0
 40
7.0
 40
7.0
 40
8.0
 40
8.0
 40
8.0
 40
9.0
 40
9.0
 40
9.0
 40
9.0
 10
0.4960594956393548
 20
-1.148504861146511
 10
0.4960594956393548
 20
-1.148504861146511
 10
0.2481431789090971
 20
-1.148504861146511
 10
0.2481431789090971
 20
-1.148504861146511
 10
0.2382405890893297
 20
-1.148504861146511
 10
0.2290606734773323
 20
-1.143348483015507
 10
0.2239238270816642
 20
-1.134891241611248
 10
0.2187674489506605
 20
-1.126414468471652
 10
0.2184158777144593
 20
-1.115886863120857
 10
0.2229863037851064
 20
-1.107097582215732
 10
0.2229863037851064
 20
-1.107097582215732
 10
0.3516613762360116
 20
-0.8591812654854744
 10
0.3516613762360116
 20
-0.8591812654854744
 10
0.3566224370135631
 20
-0.8496693103726114
 10
0.3664273681565883
 20
-0.8435949406804175
 10
0.3772479495375459
 20
-0.8439074484459154
 10
0.3879904039771289
 20
-0.8440637023286964
 10
0.3977172081788117
 20
-0.8502747941683036
 10
0.4023657611908333
 20
-0.8599625348992832
 10
0.4023657611908333
 20
-0.8599625348992832
 10
0.5216070054702179
 20
-1.107878851629541
 10
0.5216070054702179
 20
-1.107878851629541
 10
0.5258258603046638
 20
-1.116668132534634
 10
0.5252399082443393
 20
-1.127000420532009
 10
0.520063998378
 20
-1.135242812847449
 10
0.514868556776293
 20
-1.143504736898256
 10
0.5058058315763733
 20
-1.148504861146511
 10
0.4960594956393548
 20
-1.148504861146511
 97
        0
 97
        0
 92
        1
 93
        3
 72
     1
 10
0.2947849629122218
 20
-1.091823765176205
 11
0.4509607187284481
 21
-1.091823765176205
 72
     1
 10
0.4509607187284481
 20
-1.091823765176205
 11
0.3758611963280769
 21
-0.9356480093599789
 72
     1
 10
0.3758611963280769
 20
-0.9356480093599789
 11
0.2947849629122218
 21
-1.091823765176205
 97
        0
 75
     2
 76
     1
 98
        0
  0
SPLINE
  5
4D
330
41
100
AcDbEntity
  8
Calque 1
370
     0
100
AcDbSpline
210
0.0
220
0.0
230
1.0
 70
    11
 71
     3
 72
    29
 73
    25
 74
     0
 42
0.0000000001
 43
0.0000000001
 12
1.0
 22
0.0
 32
0.0
 13
1.0
 23
0.0
 33
0.0
 40
0.0
 40
0.0
 40
0.0
 40
0.0
 40
1.0
 40
1.0
 40
1.0
 40
2.0
 40
2.0
 40
2.0
 40
3.0
 40
3.0
 40
3.0
 40
4.0
 40
4.0
 40
4.0
 40
5.0
 40
5.0
 40
5.0
 40
6.0
 40
6.0
 40
6.0
 40
7.0
 40
7.0
 40
7.0
 40
8.0
 40
8.0
 40
8.0
 40
8.0
 10
2.280635090613827
 20
-1.148504861146511
 30
0.0
 10
2.280635090613827
 20
-1.148504861146511
 30
0.0
 10
2.268427756023368
 20
-1.148504861146511
 30
0.0
 10
2.268427756023368
 20
-1.148504861146511
 30
0.0
 10
2.187820284255792
 20
-1.148504861146511
 30
0.0
 10
2.122232716968316
 20
-1.082917293859002
 30
0.0
 10
2.122232716968316
 20
-1.002309822091426
 30
0.0
 10
2.122232716968316
 20
-1.002309822091426
 30
0.0
 10
2.122232716968316
 20
-0.9901024875009998
 30
0.0
 10
2.122232716968316
 20
-0.9901024875009998
 30
0.0
 10
2.122232716968316
 20
-0.9094950157334237
 30
0.0
 10
2.187820284255792
 20
-0.8439074484459154
 30
0.0
 10
2.268427756023368
 20
-0.8439074484459154
 30
0.0
 10
2.268427756023368
 20
-0.8439074484459154
 30
0.0
 10
2.280635090613827
 20
-0.8439074484459154
 30
0.0
 10
2.280635090613827
 20
-0.8439074484459154
 30
0.0
 10
2.361242562381403
 20
-0.8439074484459154
 30
0.0
 10
2.426830129668879
 20
-0.9094950157334237
 30
0.0
 10
2.426830129668879
 20
-0.9901024875009998
 30
0.0
 10
2.426830129668879
 20
-0.9901024875009998
 30
0.0
 10
2.426830129668879
 20
-1.002309822091426
 30
0.0
 10
2.426830129668879
 20
-1.002309822091426
 30
0.0
 10
2.426830129668879
 20
-1.082917293859002
 30
0.0
 10
2.361242562381403
 20
-1.148504861146511
 30
0.0
 10
2.280635090613827
 20
-1.148504861146511
 30
0.0
  0
SPLINE
  5
4E
330
41
100
AcDbEntity
  8
Calque 1
370
     0
100
AcDbSpline
210
0.0
220
0.0
230
1.0
 70
    11
 71
     3
 72
    29
 73
    25
 74
     0
 42
0.0000000001
 43
0.0000000001
 12
1.0
 22
0.0
 32
0.0
 13
1.0
 23
0.0
 33
0.0
 40
0.0
 40
0.0
 40
0.0
 40
0.0
 40
1.0
 40
1.0
 40
1.0
 40
2.0
 40
2.0
 40
2.0
 40
3.0
 40
3.0
 40
3.0
 40
4.0
 40
4.0
 40
4.0
 40
5.0
 40
5.0
 40
5.0
 40
6.0
 40
6.0
 40
6.0
 40
7.0
 40
7.0
 40
7.0
 40
8.0
 40
8.0
 40
8.0
 40
8.0
 10
2.268427756023368
 20
-0.9005885444162529
 30
0.0
 10
2.219071060807312
 20
-0.9005885444162529
 30
0.0
 10
2.178913812938621
 20
-0.9407457922849438
 30
0.0
 10
2.178913812938621
 20
-0.9901024875009998
 30
0.0
 10
2.178913812938621
 20
-0.9901024875009998
 30
0.0
 10
2.178913812938621
 20
-1.002309822091426
 30
0.0
 10
2.178913812938621
 20
-1.002309822091426
 30
0.0
 10
2.178913812938621
 20
-1.051666517307482
 30
0.0
 10
2.219071060807312
 20
-1.091823765176205
 30
0.0
 10
2.268427756023368
 20
-1.091823765176205
 30
0.0
 10
2.268427756023368
 20
-1.091823765176205
 30
0.0
 10
2.280635090613827
 20
-1.091823765176205
 30
0.0
 10
2.280635090613827
 20
-1.091823765176205
 30
0.0
 10
2.329991785829883
 20
-1.091823765176205
 30
0.0
 10
2.370149033698574
 20
-1.051666517307482
 30
0.0
 10
2.370149033698574
 20
-1.002309822091426
 30
0.0
 10
2.370149033698574
 20
-1.002309822091426
 30
0.0
 10
2.370149033698574
 20
-0.9901024875009998
 30
0.0
 10
2.370149033698574
 20
-0.9901024875009998
 30
0.0
 10
2.370149033698574
 20
-0.9407457922849438
 30
0.0
 10
2.329991785829883
 20
-0.9005885444162529
 30
0.0
 10
2.280635090613827
 20
-0.9005885444162529
 30
0.0
 10
2.280635090613827
 20
-0.9005885444162529
 30
0.0
 10
2.268427756023368
 20
-0.9005885444162529
 30
0.0
 10
2.268427756023368
 20
-0.9005885444162529
 30
0.0
  0
HATCH
  5
4F
330
41
100
AcDbEntity
  8
Calque 1
 62
     7
420
 16777215
100
AcDbHatch
 10
0.0
 20
0.0
 30
0.0
210
0.0
220
0.0
230
1.0
  2
SOLID
 70
     1
 71
     0
 91
        2
 92
        1
 93
        1
 72
     4
 94
        3
 73
     0
 74
     1
 95
       29
 96
       25
 40
0.0
 40
0.0
 40
0.0
 40
0.0
 40
1.0
 40
1.0
 40
1.0
 40
2.0
 40
2.0
 40
2.0
 40
3.0
 40
3.0
 40
3.0
 40
4.0
 40
4.0
 40
4.0
 40
5.0
 40
5.0
 40
5.0
 40
6.0
 40
6.0
 40
6.0
 40
7.0
 40
7.0
 40
7.0
 40
8.0
 40
8.0
 40
8.0
 40
8.0
 10
2.280635090613827
 20
-1.148504861146511
 10
2.280635090613827
 20
-1.148504861146511
 10
2.268427756023368
 20
-1.148504861146511
 10
2.268427756023368
 20
-1.148504861146511
 10
2.187820284255792
 20
-1.148504861146511
 10
2.122232716968316
 20
-1.082917293859002
 10
2.122232716968316
 20
-1.002309822091426
 10
2.122232716968316
 20
-1.002309822091426
 10
2.122232716968316
 20
-0.9901024875009998
 10
2.122232716968316
 20
-0.9901024875009998
 10
2.122232716968316
 20
-0.9094950157334237
 10
2.187820284255792
 20
-0.8439074484459154
 10
2.268427756023368
 20
-0.8439074484459154
 10
2.268427756023368
 20
-0.8439074484459154
 10
2.280635090613827
 20
-0.8439074484459154
 10
2.280635090613827
 20
-0.8439074484459154
 10
2.361242562381403
 20
-0.8439074484459154
 10
2.426830129668879
 20
-0.9094950157334237
 10
2.426830129668879
 20
-0.9901024875009998
 10
2.426830129668879
 20
-0.9901024875009998
 10
2.426830129668879
 20
-1.002309822091426
 10
2.426830129668879
 20
-1.002309822091426
 10
2.426830129668879
 20
-1.082917293859002
 10
2.361242562381403
 20
-1.148504861146511
 10
2.280635090613827
 20
-1.148504861146511
 97
        0
 97
        0
 92
        1
 93
        1
 72
     4
 94
        3
 73
     0
 74
     1
 95
       29
 96
       25
 40
0.0
 40
0.0
 40
0.0
 40
0.0
 40
1.0
 40
1.0
 40
1.0
 40
2.0
 40
2.0
 40
2.0
 40
3.0
 40
3.0
 40
3.0
 40
4.0
 40
4.0
 40
4.0
 40
5.0
 40
5.0
 40
5.0
 40
6.0
 40
6.0
 40
6.0
 40
7.0
 40
7.0
 40
7.0
 40
8.0
 40
8.0
 40
8.0
 40
8.0
 10
2.268427756023368
 20
-0.9005885444162529
 10
2.219071060807312
 20
-0.9005885444162529
 10
2.178913812938621
 20
-0.9407457922849438
 10
2.178913812938621
 20
-0.9901024875009998
 10
2.178913812938621
 20
-0.9901024875009998
 10
2.178913812938621
 20
-1.002309822091426
 10
2.178913812938621
 20
-1.002309822091426
 10
2.178913812938621
 20
-1.051666517307482
 10
2.219071060807312
 20
-1.091823765176205
 10
2.268427756023368
 20
-1.091823765176205
 10
2.268427756023368
 20
-1.091823765176205
 10
2.280635090613827
 20
-1.091823765176205
 10
2.280635090613827
 20
-1.091823765176205
 10
2.329991785829883
 20
-1.091823765176205
 10
2.370149033698574
 20
-1.051666517307482
 10
2.370149033698574
 20
-1.002309822091426
 10
2.370149033698574
 20
-1.002309822091426
 10
2.370149033698574
 20
-0.9901024875009998
 10
2.370149033698574
 20
-0.9901024875009998
 10
2.370149033698574
 20
-0.9407457922849438
 10
2.329991785829883
 20
-0.9005885444162529
 10
2.280635090613827
 20
-0.9005885444162529
 10
2.280635090613827
 20
-0.9005885444162529
 10
2.268427756023368
 20
-0.9005885444162529
 10
2.268427756023368
 20
-0.9005885444162529
 97
        0
 97
        0
 75
     2
 76
     1
 98
        0
  0
SPLINE
  5
50
330
41
100
AcDbEntity
  8
Calque 1
370
     0
100
AcDbSpline
210
0.0
220
0.0
230
1.0
 70
    11
 71
     3
 72
   119
 73
   115
 74
     0
 42
0.0000000001
 43
0.0000000001
 12
1.0
 22
0.0
 32
0.0
 13
1.0
 23
0.0
 33
0.0
 40
0.0
 40
0.0
 40
0.0
 40
0.0
 40
1.0
 40
1.0
 40
1.0
 40
2.0
 40
2.0
 40
2.0
 40
3.0
 40
3.0
 40
3.0
 40
4.0
 40
4.0
 40
4.0
 40
5.0
 40
5.0
 40
5.0
 40
6.0
 40
6.0
 40
6.0
 40
7.0
 40
7.0
 40
7.0
 40
8.0
 40
8.0
 40
8.0
 40
9.0
 40
9.0
 40
9.0
 40
10.0
 40
10.0
 40
10.0
 40
11.0
 40
11.0
 40
11.0
 40
12.0
 40
12.0
 40
12.0
 40
13.0
 40
13.0
 40
13.0
 40
14.0
 40
14.0
 40
14.0
 40
15.0
 40
15.0
 40
15.0
 40
16.0
 40
16.0
 40
16.0
 40
17.0
 40
17.0
 40
17.0
 40
18.0
 40
18.0
 40
18.0
 40
19.0
 40
19.0
 40
19.0
 40
20.0
 40
20.0
 40
20.0
 40
21.0
 40
21.0
 40
21.0
 40
22.0
 40
22.0
 40
22.0
 40
23.0
 40
23.0
 40
23.0
 40
24.0
 40
24.0
 40
24.0
 40
25.0
 40
25.0
 40
25.0
 40
26.0
 40
26.0
 40
26.0
 40
27.0
 40
27.0
 40
27.0
 40
28.0
 40
28.0
 40
28.0
 40
29.0
 40
29.0
 40
29.0
 40
30.0
 40
30.0
 40
30.0
 40
31.0
 40
31.0
 40
31.0
 40
32.0
 40
32.0
 40
32.0
 40
33.0
 40
33.0
 40
33.0
 40
34.0
 40
34.0
 40
34.0
 40
35.0
 40
35.0
 40
35.0
 40
36.0
 40
36.0
 40
36.0
 40
37.0
 40
37.0
 40
37.0
 40
38.0
 40
38.0
 40
38.0
 40
38.0
 10
2.359428552461239
 20
-1.743893191125899
 30
0.0
 10
2.359428552461239
 20
-1.696938899357244
 30
0.0
 10
2.321217153726267
 20
-1.658729942089153
 30
0.0
 10
2.274265303424526
 20
-1.658729942089153
 30
0.0
 10
2.227311011655871
 20
-1.658729942089153
 30
0.0
 10
2.189102054387812
 20
-1.696938899357244
 30
0.0
 10
2.189102054387812
 20
-1.743893191125899
 30
0.0
 10
2.189102054387812
 20
-1.877209492188054
 30
0.0
 10
2.080578849878817
 20
-1.985730255230105
 30
0.0
 10
1.947145358404583
 20
-1.985730255230105
 30
0.0
 10
1.813829057342428
 20
-1.985730255230105
 30
0.0
 10
1.705308294300377
 20
-1.877209492188054
 30
0.0
 10
1.705308294300377
 20
-1.743893191125899
 30
0.0
 10
1.705308294300377
 20
-1.739701192427527
 30
0.0
 10
1.704829766784415
 20
-1.735628825608146
 30
0.0
 10
1.704351239268484
 20
-1.734071169714419
 30
0.0
 10
1.704231607389493
 20
-1.651661895361308
 30
0.0
 10
1.734415462897813
 20
-1.58147216293322
 30
0.0
 10
1.76004842407079
 20
-1.536434422695233
 30
0.0
 10
1.786760513621595
 20
-1.485048868470257
 30
0.0
 10
1.849044776168935
 20
-1.35101477613419
 30
0.0
 10
1.848925144289944
 20
-1.217339579435062
 30
0.0
 10
1.848805512410953
 20
-0.915134804314216
 30
0.0
 10
1.619068358352748
 20
-0.6779707078911931
 30
0.0
 10
1.325606476265585
 20
-0.6774921803752625
 30
0.0
 10
1.032383857936372
 20
-0.6779707078911931
 30
0.0
 10
0.8026467038781663
 20
-0.915134804314216
 30
0.0
 10
0.8025270719992077
 20
-1.217339579435062
 30
0.0
 10
0.8025270719992077
 20
-1.351254039892171
 30
0.0
 10
0.8646917026675245
 20
-1.485168500349248
 30
0.0
 10
0.891762687855302
 20
-1.537032582090186
 30
0.0
 10
0.9124834175890819
 20
-1.573207797415468
 30
0.0
 10
0.9472206088996262
 20
-1.646991369147006
 30
0.0
 10
0.9472206088996262
 20
-1.732994482803535
 30
0.0
 10
0.9466224495047049
 20
-1.736588322106953
 30
0.0
 10
0.9461414805218612
 20
-1.74017971994349
 30
0.0
 10
0.9461414805218612
 20
-1.743893191125899
 30
0.0
 10
0.9461414805218612
 20
-1.877209492188054
 30
0.0
 10
0.8376207174797791
 20
-1.985730255230105
 30
0.0
 10
0.7043068578845362
 20
-1.985730255230105
 30
0.0
 10
0.5709905568223803
 20
-1.985730255230105
 30
0.0
 10
0.4624697937802982
 20
-1.877209492188054
 30
0.0
 10
0.4624697937802982
 20
-1.743893191125899
 30
0.0
 10
0.4624697937802982
 20
-1.696938899357244
 30
0.0
 10
0.4242608365122394
 20
-1.658729942089153
 30
0.0
 10
0.3773065447435847
 20
-1.658729942089153
 30
0.0
 10
0.3302326210959394
 20
-1.658729942089153
 30
0.0
 10
0.2920236638278806
 20
-1.696938899357244
 30
0.0
 10
0.2920236638278806
 20
-1.743893191125899
 30
0.0
 10
0.2920236638278806
 20
-1.971235266137442
 30
0.0
 10
0.4769647828729933
 20
-2.156176385182554
 30
0.0
 10
0.7043068578845362
 20
-2.156176385182554
 30
0.0
 10
0.7160454308267159
 20
-2.156176385182554
 30
0.0
 10
0.7277840037688635
 20
-2.155697857666591
 30
0.0
 10
0.7395225767110433
 20
-2.154618729288794
 30
0.0
 10
0.6506458564918889
 20
-2.231158717170848
 30
0.0
 10
0.5978222782521444
 20
-2.343392951395339
 30
0.0
 10
0.5978222782521444
 20
-2.462814864226666
 30
0.0
 10
0.5978222782521444
 20
-2.462814864226666
 30
0.0
 10
0.5978222782521444
 20
-2.718304611336806
 30
0.0
 10
0.5978222782521444
 20
-2.718304611336806
 30
0.0
 10
0.5978222782521444
 20
-2.765378534984452
 30
0.0
 10
0.6360312355202352
 20
-2.803587492252543
 30
0.0
 10
0.68298552728889
 20
-2.803587492252543
 30
0.0
 10
0.7300594509365353
 20
-2.803587492252543
 30
0.0
 10
0.7682684082045941
 20
-2.765378534984452
 30
0.0
 10
0.7682684082045941
 20
-2.718304611336806
 30
0.0
 10
0.7682684082045941
 20
-2.718304611336806
 30
0.0
 10
0.7682684082045941
 20
-2.462814864226666
 30
0.0
 10
0.7682684082045941
 20
-2.462814864226666
 30
0.0
 10
0.7682684082045941
 20
-2.332613874951965
 30
0.0
 10
0.8742744603210231
 20
-2.226607822835536
 30
0.0
 10
1.004475449595724
 20
-2.226607822835536
 30
0.0
 10
1.134676438870392
 20
-2.226607822835536
 30
0.0
 10
1.24056285910783
 20
-2.332613874951965
 30
0.0
 10
1.24056285910783
 20
-2.462814864226666
 30
0.0
 10
1.24056285910783
 20
-2.462814864226666
 30
0.0
 10
1.24056285910783
 20
-2.719024844077663
 30
0.0
 10
1.24056285910783
 20
-2.719024844077663
 30
0.0
 10
1.24056285910783
 20
-2.766096326258396
 30
0.0
 10
1.278771816375921
 20
-2.804307724993367
 30
0.0
 10
1.325726108144576
 20
-2.804307724993367
 30
0.0
 10
1.372800031792221
 20
-2.804307724993367
 30
0.0
 10
1.41100898906028
 20
-2.766096326258396
 30
0.0
 10
1.41100898906028
 20
-2.719024844077663
 30
0.0
 10
1.41100898906028
 20
-2.719024844077663
 30
0.0
 10
1.41100898906028
 20
-2.462814864226666
 30
0.0
 10
1.41100898906028
 20
-2.462814864226666
 30
0.0
 10
1.41100898906028
 20
-2.332613874951965
 30
0.0
 10
1.516895409297718
 20
-2.226607822835536
 30
0.0
 10
1.647096398572419
 20
-2.226607822835536
 30
0.0
 10
1.777297387847087
 20
-2.226607822835536
 30
0.0
 10
1.883300998496603
 20
-2.332613874951965
 30
0.0
 10
1.883300998496603
 20
-2.462814864226666
 30
0.0
 10
1.883300998496603
 20
-2.462814864226666
 30
0.0
 10
1.883300998496603
 20
-2.718304611336806
 30
0.0
 10
1.883300998496603
 20
-2.718304611336806
 30
0.0
 10
1.883300998496603
 20
-2.765378534984452
 30
0.0
 10
1.921512397231575
 20
-2.803587492252543
 30
0.0
 10
1.968466689000262
 20
-2.803587492252543
 30
0.0
 10
2.015540612647875
 20
-2.803587492252543
 30
0.0
 10
2.053749569915966
 20
-2.765378534984452
 30
0.0
 10
2.053749569915966
 20
-2.718304611336806
 30
0.0
 10
2.053749569915966
 20
-2.718304611336806
 30
0.0
 10
2.053749569915966
 20
-2.462814864226666
 30
0.0
 10
2.053749569915966
 20
-2.462814864226666
 30
0.0
 10
2.053749569915966
 20
-2.343392951395339
 30
0.0
 10
2.000925991676221
 20
-2.231158717170848
 30
0.0
 10
1.912049271457067
 20
-2.154740802634698
 30
0.0
 10
1.923668212520256
 20
-2.155697857666591
 30
0.0
 10
1.935406785462436
 20
-2.156176385182554
 30
0.0
 10
1.947145358404583
 20
-2.156176385182554
 30
0.0
 10
2.174487433416127
 20
-2.156176385182554
 30
0.0
 10
2.359428552461239
 20
-1.971235266137442
 30
0.0
 10
2.359428552461239
 20
-1.743893191125899
 30
0.0
  0
SPLINE
  5
51
330
41
100
AcDbEntity
  8
Calque 1
370
     0
100
AcDbSpline
210
0.0
220
0.0
230
1.0
 70
    11
 71
     3
 72
    17
 73
    13
 74
     0
 42
0.0000000001
 43
0.0000000001
 12
1.0
 22
0.0
 32
0.0
 13
1.0
 23
0.0
 33
0.0
 40
0.0
 40
0.0
 40
0.0
 40
0.0
 40
1.0
 40
1.0
 40
1.0
 40
2.0
 40
2.0
 40
2.0
 40
3.0
 40
3.0
 40
3.0
 40
4.0
 40
4.0
 40
4.0
 40
4.0
 10
1.164943304253912
 20
-1.781713955153966
 30
0.0
 10
1.110608457991882
 20
-1.781713955153966
 30
0.0
 10
1.066561953322666
 20
-1.72598014834787
 30
0.0
 10
1.066561953322666
 20
-1.657230881401464
 30
0.0
 10
1.066561953322666
 20
-1.588481614455027
 30
0.0
 10
1.110608457991882
 20
-1.532747807648931
 30
0.0
 10
1.164943304253912
 20
-1.532747807648931
 30
0.0
 10
1.219278150515942
 20
-1.532747807648931
 30
0.0
 10
1.263324655185159
 20
-1.588481614455027
 30
0.0
 10
1.263324655185159
 20
-1.657230881401464
 30
0.0
 10
1.263324655185159
 20
-1.72598014834787
 30
0.0
 10
1.219278150515942
 20
-1.781713955153966
 30
0.0
 10
1.164943304253912
 20
-1.781713955153966
 30
0.0
  0
SPLINE
  5
52
330
41
100
AcDbEntity
  8
Calque 1
370
     0
100
AcDbSpline
210
0.0
220
0.0
230
1.0
 70
    11
 71
     3
 72
    17
 73
    13
 74
     0
 42
0.0000000001
 43
0.0000000001
 12
1.0
 22
0.0
 32
0.0
 13
1.0
 23
0.0
 33
0.0
 40
0.0
 40
0.0
 40
0.0
 40
0.0
 40
1.0
 40
1.0
 40
1.0
 40
2.0
 40
2.0
 40
2.0
 40
3.0
 40
3.0
 40
3.0
 40
4.0
 40
4.0
 40
4.0
 40
4.0
 10
1.497954508947193
 20
-1.781713955153966
 30
0.0
 10
1.443619662685163
 20
-1.781713955153966
 30
0.0
 10
1.399573158015947
 20
-1.72598014834787
 30
0.0
 10
1.399573158015947
 20
-1.657230881401464
 30
0.0
 10
1.399573158015947
 20
-1.588481614455027
 30
0.0
 10
1.443619662685163
 20
-1.532747807648931
 30
0.0
 10
1.497954508947193
 20
-1.532747807648931
 30
0.0
 10
1.552289355209223
 20
-1.532747807648931
 30
0.0
 10
1.596338301345352
 20
-1.588481614455027
 30
0.0
 10
1.596338301345352
 20
-1.657230881401464
 30
0.0
 10
1.596338301345352
 20
-1.72598014834787
 30
0.0
 10
1.552289355209223
 20
-1.781713955153966
 30
0.0
 10
1.497954508947193
 20
-1.781713955153966
 30
0.0
  0
HATCH
  5
53
330
41
100
AcDbEntity
  8
Calque 1
 62
     7
420
 16777215
100
AcDbHatch
 10
0.0
 20
0.0
 30
0.0
210
0.0
220
0.0
230
1.0
  2
SOLID
 70
     1
 71
     0
 91
        3
 92
        1
 93
        1
 72
     4
 94
        3
 73
     0
 74
     1
 95
      119
 96
      115
 40
0.0
 40
0.0
 40
0.0
 40
0.0
 40
1.0
 40
1.0
 40
1.0
 40
2.0
 40
2.0
 40
2.0
 40
3.0
 40
3.0
 40
3.0
 40
4.0
 40
4.0
 40
4.0
 40
5.0
 40
5.0
 40
5.0
 40
6.0
 40
6.0
 40
6.0
 40
7.0
 40
7.0
 40
7.0
 40
8.0
 40
8.0
 40
8.0
 40
9.0
 40
9.0
 40
9.0
 40
10.0
 40
10.0
 40
10.0
 40
11.0
 40
11.0
 40
11.0
 40
12.0
 40
12.0
 40
12.0
 40
13.0
 40
13.0
 40
13.0
 40
14.0
 40
14.0
 40
14.0
 40
15.0
 40
15.0
 40
15.0
 40
16.0
 40
16.0
 40
16.0
 40
17.0
 40
17.0
 40
17.0
 40
18.0
 40
18.0
 40
18.0
 40
19.0
 40
19.0
 40
19.0
 40
20.0
 40
20.0
 40
20.0
 40
21.0
 40
21.0
 40
21.0
 40
22.0
 40
22.0
 40
22.0
 40
23.0
 40
23.0
 40
23.0
 40
24.0
 40
24.0
 40
24.0
 40
25.0
 40
25.0
 40
25.0
 40
26.0
 40
26.0
 40
26.0
 40
27.0
 40
27.0
 40
27.0
 40
28.0
 40
28.0
 40
28.0
 40
29.0
 40
29.0
 40
29.0
 40
30.0
 40
30.0
 40
30.0
 40
31.0
 40
31.0
 40
31.0
 40
32.0
 40
32.0
 40
32.0
 40
33.0
 40
33.0
 40
33.0
 40
34.0
 40
34.0
 40
34.0
 40
35.0
 40
35.0
 40
35.0
 40
36.0
 40
36.0
 40
36.0
 40
37.0
 40
37.0
 40
37.0
 40
38.0
 40
38.0
 40
38.0
 40
38.0
 10
2.359428552461239
 20
-1.743893191125899
 10
2.359428552461239
 20
-1.696938899357244
 10
2.321217153726267
 20
-1.658729942089153
 10
2.274265303424526
 20
-1.658729942089153
 10
2.227311011655871
 20
-1.658729942089153
 10
2.189102054387812
 20
-1.696938899357244
 10
2.189102054387812
 20
-1.743893191125899
 10
2.189102054387812
 20
-1.877209492188054
 10
2.080578849878817
 20
-1.985730255230105
 10
1.947145358404583
 20
-1.985730255230105
 10
1.813829057342428
 20
-1.985730255230105
 10
1.705308294300377
 20
-1.877209492188054
 10
1.705308294300377
 20
-1.743893191125899
 10
1.705308294300377
 20
-1.739701192427527
 10
1.704829766784415
 20
-1.735628825608146
 10
1.704351239268484
 20
-1.734071169714419
 10
1.704231607389493
 20
-1.651661895361308
 10
1.734415462897813
 20
-1.58147216293322
 10
1.76004842407079
 20
-1.536434422695233
 10
1.786760513621595
 20
-1.485048868470257
 10
1.849044776168935
 20
-1.35101477613419
 10
1.848925144289944
 20
-1.217339579435062
 10
1.848805512410953
 20
-0.915134804314216
 10
1.619068358352748
 20
-0.6779707078911931
 10
1.325606476265585
 20
-0.6774921803752625
 10
1.032383857936372
 20
-0.6779707078911931
 10
0.8026467038781663
 20
-0.915134804314216
 10
0.8025270719992077
 20
-1.217339579435062
 10
0.8025270719992077
 20
-1.351254039892171
 10
0.8646917026675245
 20
-1.485168500349248
 10
0.891762687855302
 20
-1.537032582090186
 10
0.9124834175890819
 20
-1.573207797415468
 10
0.9472206088996262
 20
-1.646991369147006
 10
0.9472206088996262
 20
-1.732994482803535
 10
0.9466224495047049
 20
-1.736588322106953
 10
0.9461414805218612
 20
-1.74017971994349
 10
0.9461414805218612
 20
-1.743893191125899
 10
0.9461414805218612
 20
-1.877209492188054
 10
0.8376207174797791
 20
-1.985730255230105
 10
0.7043068578845362
 20
-1.985730255230105
 10
0.5709905568223803
 20
-1.985730255230105
 10
0.4624697937802982
 20
-1.877209492188054
 10
0.4624697937802982
 20
-1.743893191125899
 10
0.4624697937802982
 20
-1.696938899357244
 10
0.4242608365122394
 20
-1.658729942089153
 10
0.3773065447435847
 20
-1.658729942089153
 10
0.3302326210959394
 20
-1.658729942089153
 10
0.2920236638278806
 20
-1.696938899357244
 10
0.2920236638278806
 20
-1.743893191125899
 10
0.2920236638278806
 20
-1.971235266137442
 10
0.4769647828729933
 20
-2.156176385182554
 10
0.7043068578845362
 20
-2.156176385182554
 10
0.7160454308267159
 20
-2.156176385182554
 10
0.7277840037688635
 20
-2.155697857666591
 10
0.7395225767110433
 20
-2.154618729288794
 10
0.6506458564918889
 20
-2.231158717170848
 10
0.5978222782521444
 20
-2.343392951395339
 10
0.5978222782521444
 20
-2.462814864226666
 10
0.5978222782521444
 20
-2.462814864226666
 10
0.5978222782521444
 20
-2.718304611336806
 10
0.5978222782521444
 20
-2.718304611336806
 10
0.5978222782521444
 20
-2.765378534984452
 10
0.6360312355202352
 20
-2.803587492252543
 10
0.68298552728889
 20
-2.803587492252543
 10
0.7300594509365353
 20
-2.803587492252543
 10
0.7682684082045941
 20
-2.765378534984452
 10
0.7682684082045941
 20
-2.718304611336806
 10
0.7682684082045941
 20
-2.718304611336806
 10
0.7682684082045941
 20
-2.462814864226666
 10
0.7682684082045941
 20
-2.462814864226666
 10
0.7682684082045941
 20
-2.332613874951965
 10
0.8742744603210231
 20
-2.226607822835536
 10
1.004475449595724
 20
-2.226607822835536
 10
1.134676438870392
 20
-2.226607822835536
 10
1.24056285910783
 20
-2.332613874951965
 10
1.24056285910783
 20
-2.462814864226666
 10
1.24056285910783
 20
-2.462814864226666
 10
1.24056285910783
 20
-2.719024844077663
 10
1.24056285910783
 20
-2.719024844077663
 10
1.24056285910783
 20
-2.766096326258396
 10
1.278771816375921
 20
-2.804307724993367
 10
1.325726108144576
 20
-2.804307724993367
 10
1.372800031792221
 20
-2.804307724993367
 10
1.41100898906028
 20
-2.766096326258396
 10
1.41100898906028
 20
-2.719024844077663
 10
1.41100898906028
 20
-2.719024844077663
 10
1.41100898906028
 20
-2.462814864226666
 10
1.41100898906028
 20
-2.462814864226666
 10
1.41100898906028
 20
-2.332613874951965
 10
1.516895409297718
 20
-2.226607822835536
 10
1.647096398572419
 20
-2.226607822835536
 10
1.777297387847087
 20
-2.226607822835536
 10
1.883300998496603
 20
-2.332613874951965
 10
1.883300998496603
 20
-2.462814864226666
 10
1.883300998496603
 20
-2.462814864226666
 10
1.883300998496603
 20
-2.718304611336806
 10
1.883300998496603
 20
-2.718304611336806
 10
1.883300998496603
 20
-2.765378534984452
 10
1.921512397231575
 20
-2.803587492252543
 10
1.968466689000262
 20
-2.803587492252543
 10
2.015540612647875
 20
-2.803587492252543
 10
2.053749569915966
 20
-2.765378534984452
 10
2.053749569915966
 20
-2.718304611336806
 10
2.053749569915966
 20
-2.718304611336806
 10
2.053749569915966
 20
-2.462814864226666
 10
2.053749569915966
 20
-2.462814864226666
 10
2.053749569915966
 20
-2.343392951395339
 10
2.000925991676221
 20
-2.231158717170848
 10
1.912049271457067
 20
-2.154740802634698
 10
1.923668212520256
 20
-2.155697857666591
 10
1.935406785462436
 20
-2.156176385182554
 10
1.947145358404583
 20
-2.156176385182554
 10
2.174487433416127
 20
-2.156176385182554
 10
2.359428552461239
 20
-1.971235266137442
 10
2.359428552461239
 20
-1.743893191125899
 97
        0
 97
        0
 92
        1
 93
        1
 72
     4
 94
        3
 73
     0
 74
     1
 95
       17
 96
       13
 40
0.0
 40
0.0
 40
0.0
 40
0.0
 40
1.0
 40
1.0
 40
1.0
 40
2.0
 40
2.0
 40
2.0
 40
3.0
 40
3.0
 40
3.0
 40
4.0
 40
4.0
 40
4.0
 40
4.0
 10
1.164943304253912
 20
-1.781713955153966
 10
1.110608457991882
 20
-1.781713955153966
 10
1.066561953322666
 20
-1.72598014834787
 10
1.066561953322666
 20
-1.657230881401464
 10
1.066561953322666
 20
-1.588481614455027
 10
1.110608457991882
 20
-1.532747807648931
 10
1.164943304253912
 20
-1.532747807648931
 10
1.219278150515942
 20
-1.532747807648931
 10
1.263324655185159
 20
-1.588481614455027
 10
1.263324655185159
 20
-1.657230881401464
 10
1.263324655185159
 20
-1.72598014834787
 10
1.219278150515942
 20
-1.781713955153966
 10
1.164943304253912
 20
-1.781713955153966
 97
        0
 97
        0
 92
        1
 93
        1
 72
     4
 94
        3
 73
     0
 74
     1
 95
       17
 96
       13
 40
0.0
 40
0.0
 40
0.0
 40
0.0
 40
1.0
 40
1.0
 40
1.0
 40
2.0
 40
2.0
 40
2.0
 40
3.0
 40
3.0
 40
3.0
 40
4.0
 40
4.0
 40
4.0
 40
4.0
 10
1.497954508947193
 20
-1.781713955153966
 10
1.443619662685163
 20
-1.781713955153966
 10
1.399573158015947
 20
-1.72598014834787
 10
1.399573158015947
 20
-1.657230881401464
 10
1.399573158015947
 20
-1.588481614455027
 10
1.443619662685163
 20
-1.532747807648931
 10
1.497954508947193
 20
-1.532747807648931
 10
1.552289355209223
 20
-1.532747807648931
 10
1.596338301345352
 20
-1.588481614455027
 10
1.596338301345352
 20
-1.657230881401464
 10
1.596338301345352
 20
-1.72598014834787
 10
1.552289355209223
 20
-1.781713955153966
 10
1.497954508947193
 20
-1.781713955153966
 97
        0
 97
        0
 75
     2
 76
     1
 98
        0
  0
SPLINE
  5
54
330
41
100
AcDbEntity
  8
Calque 1
370
     0
100
AcDbSpline
210
0.0
220
0.0
230
1.0
 70
    11
 71
     3
 72
    35
 73
    31
 74
     0
 42
0.0000000001
 43
0.0000000001
 12
1.0
 22
0.0
 32
0.0
 13
1.0
 23
0.0
 33
0.0
 40
0.0
 40
0.0
 40
0.0
 40
0.0
 40
1.0
 40
1.0
 40
1.0
 40
2.0
 40
2.0
 40
2.0
 40
3.0
 40
3.0
 40
3.0
 40
4.0
 40
4.0
 40
4.0
 40
5.0
 40
5.0
 40
5.0
 40
6.0
 40
6.0
 40
6.0
 40
7.0
 40
7.0
 40
7.0
 40
8.0
 40
8.0
 40
8.0
 40
9.0
 40
9.0
 40
9.0
 40
10.0
 40
10.0
 40
10.0
 40
10.0
 10
1.323306614428752
 20
-0.4478233873907798
 30
0.0
 10
1.316060340615845
 20
-0.4478233873907798
 30
0.0
 10
1.308794535067634
 20
-0.4450694127071773
 30
0.0
 10
1.303267053965062
 20
-0.4395223998692692
 30
0.0
 10
1.303267053965062
 20
-0.4395223998692692
 30
0.0
 10
1.156212618554826
 20
-0.2924679644590336
 30
0.0
 10
1.156212618554826
 20
-0.2924679644590336
 30
0.0
 10
1.145138124614409
 20
-0.281393470518585
 30
0.0
 10
1.145138124614409
 20
-0.2634633374721658
 30
0.0
 10
1.156212618554826
 20
-0.2523888435317172
 30
0.0
 10
1.156212618554826
 20
-0.2523888435317172
 30
0.0
 10
1.303267053965062
 20
-0.1053344081214816
 30
0.0
 10
1.303267053965062
 20
-0.1053344081214816
 30
0.0
 10
1.314322016170175
 20
-0.0942403824456974
 30
0.0
 10
1.332291212687297
 20
-0.0942403824456974
 30
0.0
 10
1.34334617489241
 20
-0.1053344081214816
 30
0.0
 10
1.34334617489241
 20
-0.1053344081214816
 30
0.0
 10
1.490420142037981
 20
-0.2523888435317172
 30
0.0
 10
1.490420142037981
 20
-0.2523888435317172
 30
0.0
 10
1.495732774051734
 20
-0.2577014755454698
 30
0.0
 10
1.498721129559492
 20
-0.2649086858876737
 30
0.0
 10
1.498721129559492
 20
-0.2724284039953754
 30
0.0
 10
1.498721129559492
 20
-0.2799481221030771
 30
0.0
 10
1.495732774051734
 20
-0.2871553324452809
 30
0.0
 10
1.490420142037981
 20
-0.2924679644590336
 30
0.0
 10
1.490420142037981
 20
-0.2924679644590336
 30
0.0
 10
1.34334617489241
 20
-0.4395223998692692
 30
0.0
 10
1.34334617489241
 20
-0.4395223998692692
 30
0.0
 10
1.337818693789838
 20
-0.4450694127071773
 30
0.0
 10
1.330552888241627
 20
-0.4478233873907798
 30
0.0
 10
1.323306614428752
 20
-0.4478233873907798
 30
0.0
  0
POLYLINE
  5
55
330
41
100
AcDbEntity
  8
Calque 1
370
     0
100
AcDb2dPolyline
 66
     1
 10
0.0
 20
0.0
 30
0.0
  0
VERTEX
  5
56
330
55
100
AcDbEntity
  8
Calque 1
370
     0
100
AcDbVertex
100
AcDb2dVertex
 10
1.216350831681168
 20
-0.2724284039953754
 30
0.0
  0
VERTEX
  5
57
330
55
100
AcDbEntity
  8
Calque 1
370
     0
100
AcDbVertex
100
AcDb2dVertex
 10
1.323306614428752
 20
-0.3794037184782946
 30
0.0
  0
VERTEX
  5
58
330
55
100
AcDbEntity
  8
Calque 1
370
     0
100
AcDbVertex
100
AcDb2dVertex
 10
1.430281928911671
 20
-0.2724284039953754
 30
0.0
  0
VERTEX
  5
59
330
55
100
AcDbEntity
  8
Calque 1
370
     0
100
AcDbVertex
100
AcDb2dVertex
 10
1.323306614428752
 20
-0.1654530895124562
 30
0.0
  0
VERTEX
  5
5A
330
55
100
AcDbEntity
  8
Calque 1
370
     0
100
AcDbVertex
100
AcDb2dVertex
 10
1.216350831681168
 20
-0.2724284039953754
 30
0.0
  0
SEQEND
  5
5B
330
55
100
AcDbEntity
  8
Calque 1
370
     0
  0
HATCH
  5
5C
330
41
100
AcDbEntity
  8
Calque 1
 62
     7
420
 16777215
100
AcDbHatch
 10
0.0
 20
0.0
 30
0.0
210
0.0
220
0.0
230
1.0
  2
SOLID
 70
     1
 71
     0
 91
        2
 92
        1
 93
        1
 72
     4
 94
        3
 73
     0
 74
     1
 95
       35
 96
       31
 40
0.0
 40
0.0
 40
0.0
 40
0.0
 40
1.0
 40
1.0
 40
1.0
 40
2.0
 40
2.0
 40
2.0
 40
3.0
 40
3.0
 40
3.0
 40
4.0
 40
4.0
 40
4.0
 40
5.0
 40
5.0
 40
5.0
 40
6.0
 40
6.0
 40
6.0
 40
7.0
 40
7.0
 40
7.0
 40
8.0
 40
8.0
 40
8.0
 40
9.0
 40
9.0
 40
9.0
 40
10.0
 40
10.0
 40
10.0
 40
10.0
 10
1.323306614428752
 20
-0.4478233873907798
 10
1.316060340615845
 20
-0.4478233873907798
 10
1.308794535067634
 20
-0.4450694127071773
 10
1.303267053965062
 20
-0.4395223998692692
 10
1.303267053965062
 20
-0.4395223998692692
 10
1.156212618554826
 20
-0.2924679644590336
 10
1.156212618554826
 20
-0.2924679644590336
 10
1.145138124614409
 20
-0.281393470518585
 10
1.145138124614409
 20
-0.2634633374721658
 10
1.156212618554826
 20
-0.2523888435317172
 10
1.156212618554826
 20
-0.2523888435317172
 10
1.303267053965062
 20
-0.1053344081214816
 10
1.303267053965062
 20
-0.1053344081214816
 10
1.314322016170175
 20
-0.0942403824456974
 10
1.332291212687297
 20
-0.0942403824456974
 10
1.34334617489241
 20
-0.1053344081214816
 10
1.34334617489241
 20
-0.1053344081214816
 10
1.490420142037981
 20
-0.2523888435317172
 10
1.490420142037981
 20
-0.2523888435317172
 10
1.495732774051734
 20
-0.2577014755454698
 10
1.498721129559492
 20
-0.2649086858876737
 10
1.498721129559492
 20
-0.2724284039953754
 10
1.498721129559492
 20
-0.2799481221030771
 10
1.495732774051734
 20
-0.2871553324452809
 10
1.490420142037981
 20
-0.2924679644590336
 10
1.490420142037981
 20
-0.2924679644590336
 10
1.34334617489241
 20
-0.4395223998692692
 10
1.34334617489241
 20
-0.4395223998692692
 10
1.337818693789838
 20
-0.4450694127071773
 10
1.330552888241627
 20
-0.4478233873907798
 10
1.323306614428752
 20
-0.4478233873907798
 97
        0
 97
        0
 92
        1
 93
        4
 72
     1
 10
1.216350831681168
 20
-0.2724284039953754
 11
1.323306614428752
 21
-0.3794037184782946
 72
     1
 10
1.323306614428752
 20
-0.3794037184782946
 11
1.430281928911671
 21
-0.2724284039953754
 72
     1
 10
1.430281928911671
 20
-0.2724284039953754
 11
1.323306614428752
 21
-0.1654530895124562
 72
     1
 10
1.323306614428752
 20
-0.1654530895124562
 11
1.216350831681168
 21
-0.2724284039953754
 97
        0
 75
     2
 76
     1
 98
        0
  0
ENDBLK
  5
44
330
41
100
AcDbEntity
  8
0
100
AcDbBlockEnd
  0
ENDSEC
  0
SECTION
  2
ENTITIES
  0
INSERT
  5
42
330
1F
100
AcDbEntity
  8
Calque 1
100
AcDbBlockReference
  2
block 2
 10
0.0
 20
0.0
 30
0.0
  0
ENDSEC
  0
SECTION
  2
OBJECTS
  0
DICTIONARY
  5
C
330
0
100
AcDbDictionary
281
     1
  3
ACAD_GROUP
350
D
  3
ACAD_LAYOUT
350
1A
  3
ACAD_MATERIAL
350
3B
  3
ACAD_MLEADERSTYLE
350
5E
  3
ACAD_MLINESTYLE
350
17
  3
ACAD_PLOTSETTINGS
350
19
  3
ACAD_PLOTSTYLENAME
350
E
  3
ACAD_TABLESTYLE
350
5D
  3
ACAD_VISUALSTYLE
350
2A
  0
SUN
  5
3F
330
29
100
AcDbSun
 90
        1
290
     0
 63
     7
421
 16777215
 40
1.0
291
     1
 91
  2455826
 92
 54000000
292
     0
 70
     2
 71
   256
280
     1
  0
DICTIONARY
  5
D
102
{ACAD_REACTORS
330
C
102
}
330
C
100
AcDbDictionary
281
     1
  0
DICTIONARY
  5
1A
102
{ACAD_REACTORS
330
C
102
}
330
C
100
AcDbDictionary
281
     1
  3
Layout1
350
1E
  3
Layout2
350
26
  3
Model
350
22
  0
DICTIONARY
  5
3B
102
{ACAD_REACTORS
330
C
102
}
330
C
100
AcDbDictionary
281
     1
  3
ByBlock
350
3D
  3
ByLayer
350
3C
  3
Global
350
3E
  0
DICTIONARY
  5
5E
102
{ACAD_REACTORS
330
C
102
}
330
C
100
AcDbDictionary
281
     1
  0
DICTIONARY
  5
17
102
{ACAD_REACTORS
330
C
102
}
330
C
100
AcDbDictionary
281
     1
  3
Standard
350
18
  0
DICTIONARY
  5
19
102
{ACAD_REACTORS
330
C
102
}
330
C
100
AcDbDictionary
281
     1
  0
ACDBDICTIONARYWDFLT
  5
E
102
{ACAD_REACTORS
330
C
102
}
330
C
100
AcDbDictionary
281
     1
  3
Normal
350
F
100
AcDbDictionaryWithDefault
340
F
  0
DICTIONARY
  5
5D
102
{ACAD_REACTORS
330
C
102
}
330
C
100
AcDbDictionary
281
     1
  0
DICTIONARY
  5
2A
102
{ACAD_REACTORS
330
C
102
}
330
C
100
AcDbDictionary
281
     1
  3
2dWireframe
350
2F
  3
3D Hidden
350
31
  3
3dWireframe
350
30
  3
Basic
350
32
  3
Brighten
350
36
  3
ColorChange
350
3A
  3
Conceptual
350
34
  3
Dim
350
35
  3
Facepattern
350
39
  3
Flat
350
2B
  3
FlatWithEdges
350
2C
  3
Gouraud
350
2D
  3
GouraudWithEdges
350
2E
  3
Linepattern
350
38
  3
Realistic
350
33
  3
Thicken
350
37
  0
LAYOUT
  5
1E
102
{ACAD_REACTORS
330
1A
102
}
330
1A
100
AcDbPlotSettings
  1

  2
none_device
  4

  6

 40
0.0
 41
0.0
 42
0.0
 43
0.0
 44
0.0
 45
0.0
 46
0.0
 47
0.0
 48
0.0
 49
0.0
140
0.0
141
0.0
142
1.0
143
1.0
 70
   688
 72
     0
 73
     0
 74
     5
  7

 75
    16
 76
     0
 77
     2
 78
   300
147
1.0
148
0.0
149
0.0
100
AcDbLayout
  1
Layout1
 70
     1
 71
     1
 10
0.0
 20
0.0
 11
12.0
 21
9.0
 12
0.0
 22
0.0
 32
0.0
 14
1.000000000000000E+20
 24
1.000000000000000E+20
 34
1.000000000000000E+20
 15
-1.000000000000000E+20
 25
-1.000000000000000E+20
 35
-1.000000000000000E+20
146
0.0
 13
0.0
 23
0.0
 33
0.0
 16
1.0
 26
0.0
 36
0.0
 17
0.0
 27
1.0
 37
0.0
 76
     0
330
1B
  0
LAYOUT
  5
26
102
{ACAD_REACTORS
330
1A
102
}
330
1A
100
AcDbPlotSettings
  1

  2
none_device
  4

  6

 40
0.0
 41
0.0
 42
0.0
 43
0.0
 44
0.0
 45
0.0
 46
0.0
 47
0.0
 48
0.0
 49
0.0
140
0.0
141
0.0
142
1.0
143
1.0
 70
   688
 72
     0
 73
     0
 74
     5
  7

 75
    16
 76
     0
 77
     2
 78
   300
147
1.0
148
0.0
149
0.0
100
AcDbLayout
  1
Layout2
 70
     1
 71
     2
 10
0.0
 20
0.0
 11
0.0
 21
0.0
 12
0.0
 22
0.0
 32
0.0
 14
0.0
 24
0.0
 34
0.0
 15
0.0
 25
0.0
 35
0.0
146
0.0
 13
0.0
 23
0.0
 33
0.0
 16
1.0
 26
0.0
 36
0.0
 17
0.0
 27
1.0
 37
0.0
 76
     0
330
23
  0
LAYOUT
  5
22
102
{ACAD_REACTORS
330
1A
102
}
330
1A
100
AcDbPlotSettings
  1

  2
none_device
  4

  6

 40
0.0
 41
0.0
 42
0.0
 43
0.0
 44
0.0
 45
0.0
 46
0.0
 47
0.0
 48
0.0
 49
0.0
140
0.0
141
0.0
142
1.0
143
1.0
 70
  1712
 72
     0
 73
     0
 74
     0
  7

 75
     0
 76
     0
 77
     2
 78
   300
147
1.0
148
0.0
149
0.0
100
AcDbLayout
  1
Model
 70
     1
 71
     0
 10
0.0
 20
0.0
 11
12.0
 21
9.0
 12
0.0
 22
0.0
 32
0.0
 14
1.000000000000000E+20
 24
1.000000000000000E+20
 34
1.000000000000000E+20
 15
-1.000000000000000E+20
 25
-1.000000000000000E+20
 35
-1.000000000000000E+20
146
0.0
 13
0.0
 23
0.0
 33
0.0
 16
1.0
 26
0.0
 36
0.0
 17
0.0
 27
1.0
 37
0.0
 76
     0
330
1F
331
29
  0
MATERIAL
  5
3D
102
{ACAD_REACTORS
330
3B
102
}
330
3B
100
AcDbMaterial
  1
ByBlock
 72
     1
 94
      127
  0
MATERIAL
  5
3C
102
{ACAD_REACTORS
330
3B
102
}
330
3B
100
AcDbMaterial
  1
ByLayer
 72
     1
 94
      127
  0
MATERIAL
  5
3E
102
{ACAD_REACTORS
330
3B
102
}
330
3B
100
AcDbMaterial
  1
Global
 72
     1
 94
      127
  0
MLINESTYLE
  5
18
102
{ACAD_REACTORS
330
17
102
}
330
17
100
AcDbMlineStyle
  2
Standard
 70
     0
  3

 62
   256
 51
90.0
 52
90.0
 71
     2
 49
0.5
 62
   256
  6
BYLAYER
 49
-0.5
 62
   256
  6
BYLAYER
  0
ACDBPLACEHOLDER
  5
F
102
{ACAD_REACTORS
330
E
102
}
330
E
  0
VISUALSTYLE
  5
2F
102
{ACAD_REACTORS
330
2A
102
}
330
2A
100
AcDbVisualStyle
  2
2dWireframe
 70
     4
177
     2
291
     0
 71
     0
176
     1
 72
     2
176
     1
 73
     0
176
     1
 90
        0
176
     1
 40
-0.6
176
     1
 41
-30.0
176
     1
 62
     5
 63
     7
421
 16777215
176
     1
 74
     1
176
     1
 91
        4
176
     1
 64
     7
176
     1
 65
   257
176
     1
 75
     1
176
     1
175
     1
176
     1
 42
1.0
176
     1
 92
        0
176
     1
 66
   257
176
     1
 43
1.0
176
     1
 76
     1
176
     1
 77
     6
176
     1
 78
     2
176
     1
 67
     7
176
     1
 79
     5
176
     1
170
     0
176
     1
171
     0
176
     1
290
     0
176
     1
 93
        1
176
     1
 44
0.0
176
     1
173
     0
176
     1
  0
VISUALSTYLE
  5
31
102
{ACAD_REACTORS
330
2A
102
}
330
2A
100
AcDbVisualStyle
  2
3D Hidden
 70
     6
177
     2
291
     0
 71
     1
176
     1
 72
     2
176
     1
 73
     2
176
     1
 90
        0
176
     1
 40
-0.6
176
     1
 41
-30.0
176
     1
 62
     5
 63
     7
421
 16777215
176
     1
 74
     2
176
     1
 91
        2
176
     1
 64
     7
176
     1
 65
   257
176
     1
 75
     2
176
     1
175
     1
176
     1
 42
40.0
176
     1
 92
        0
176
     1
 66
   257
176
     1
 43
1.0
176
     1
 76
     1
176
     1
 77
     6
176
     1
 78
     2
176
     1
 67
     7
176
     1
 79
     3
176
     1
170
     0
176
     1
171
     0
176
     1
290
     0
176
     1
 93
        1
176
     1
 44
0.0
176
     1
173
     0
176
     1
  0
VISUALSTYLE
  5
30
102
{ACAD_REACTORS
330
2A
102
}
330
2A
100
AcDbVisualStyle
  2
3dWireframe
 70
     5
177
     2
291
     0
 71
     0
176
     1
 72
     2
176
     1
 73
     0
176
     1
 90
        0
176
     1
 40
-0.6
176
     1
 41
-30.0
176
     1
 62
     5
 63
     7
421
 16777215
176
     1
 74
     1
176
     1
 91
        4
176
     1
 64
     7
176
     1
 65
   257
176
     1
 75
     1
176
     1
175
     1
176
     1
 42
1.0
176
     1
 92
        0
176
     1
 66
   257
176
     1
 43
1.0
176
     1
 76
     1
176
     1
 77
     6
176
     1
 78
     2
176
     1
 67
     7
176
     1
 79
     5
176
     1
170
     0
176
     1
171
     0
176
     1
290
     0
176
     1
 93
        1
176
     1
 44
0.0
176
     1
173
     0
176
     1
  0
VISUALSTYLE
  5
32
102
{ACAD_REACTORS
330
2A
102
}
330
2A
100
AcDbVisualStyle
  2
Basic
 70
     7
177
     2
291
     1
 71
     1
176
     1
 72
     0
176
     1
 73
     1
176
     1
 90
        0
176
     1
 40
-0.6
176
     1
 41
-30.0
176
     1
 62
     5
 63
     7
421
 16777215
176
     1
 74
     0
176
     1
 91
        4
176
     1
 64
     7
176
     1
 65
   257
176
     1
 75
     1
176
     1
175
     1
176
     1
 42
1.0
176
     1
 92
        8
176
     1
 66
     7
176
     1
 43
1.0
176
     1
 76
     1
176
     1
 77
     6
176
     1
 78
     2
176
     1
 67
     7
176
     1
 79
     5
176
     1
170
     0
176
     1
171
     0
176
     1
290
     0
176
     1
 93
        1
176
     1
 44
0.0
176
     1
173
     0
176
     1
  0
VISUALSTYLE
  5
36
102
{ACAD_REACTORS
330
2A
102
}
330
2A
100
AcDbVisualStyle
  2
Brighten
 70
    12
177
     2
291
     1
 71
     2
176
     1
 72
     2
176
     1
 73
     0
176
     1
 90
        0
176
     1
 40
-0.6
176
     1
 41
-30.0
176
     1
 62
     5
 63
     7
421
 16777215
176
     1
 74
     1
176
     1
 91
        4
176
     1
 64
     7
176
     1
 65
   257
176
     1
 75
     1
176
     1
175
     1
176
     1
 42
1.0
176
     1
 92
        8
176
     1
 66
     7
176
     1
 43
1.0
176
     1
 76
     1
176
     1
 77
     6
176
     1
 78
     2
176
     1
 67
     7
176
     1
 79
     5
176
     1
170
     0
176
     1
171
     0
176
     1
290
     0
176
     1
 93
        1
176
     1
 44
50.0
176
     1
173
     0
176
     1
  0
VISUALSTYLE
  5
3A
102
{ACAD_REACTORS
330
2A
102
}
330
2A
100
AcDbVisualStyle
  2
ColorChange
 70
    16
177
     2
291
     1
 71
     2
176
     1
 72
     2
176
     1
 73
     3
176
     1
 90
        0
176
     1
 40
-0.6
176
     1
 41
-30.0
176
     1
 62
     5
 63
     8
421
  8421504
176
     1
 74
     1
176
     1
 91
        4
176
     1
 64
     7
176
     1
 65
   257
176
     1
 75
     1
176
     1
175
     1
176
     1
 42
1.0
176
     1
 92
        8
176
     1
 66
     8
424
  8421504
176
     1
 43
1.0
176
     1
 76
     1
176
     1
 77
     6
176
     1
 78
     2
176
     1
 67
     7
176
     1
 79
     5
176
     1
170
     0
176
     1
171
     0
176
     1
290
     0
176
     1
 93
        1
176
     1
 44
0.0
176
     1
173
     0
176
     1
  0
VISUALSTYLE
  5
34
102
{ACAD_REACTORS
330
2A
102
}
330
2A
100
AcDbVisualStyle
  2
Conceptual
 70
     9
177
     2
291
     0
 71
     3
176
     1
 72
     2
176
     1
 73
     0
176
     1
 90
        0
176
     1
 40
-0.6
176
     1
 41
-30.0
176
     1
 62
     5
 63
     7
421
 16777215
176
     1
 74
     2
176
     1
 91
        2
176
     1
 64
     7
176
     1
 65
   257
176
     1
 75
     1
176
     1
175
     1
176
     1
 42
40.0
176
     1
 92
        8
176
     1
 66
     7
176
     1
 43
1.0
176
     1
 76
     1
176
     1
 77
     6
176
     1
 78
     2
176
     1
 67
     7
176
     1
 79
     3
176
     1
170
     0
176
     1
171
     0
176
     1
290
     0
176
     1
 93
        1
176
     1
 44
0.0
176
     1
173
     0
176
     1
  0
VISUALSTYLE
  5
35
102
{ACAD_REACTORS
330
2A
102
}
330
2A
100
AcDbVisualStyle
  2
Dim
 70
    11
177
     2
291
     1
 71
     2
176
     1
 72
     2
176
     1
 73
     0
176
     1
 90
        0
176
     1
 40
-0.6
176
     1
 41
-30.0
176
     1
 62
     5
 63
     7
421
 16777215
176
     1
 74
     1
176
     1
 91
        4
176
     1
 64
     7
176
     1
 65
   257
176
     1
 75
     1
176
     1
175
     1
176
     1
 42
1.0
176
     1
 92
        8
176
     1
 66
     7
176
     1
 43
1.0
176
     1
 76
     1
176
     1
 77
     6
176
     1
 78
     2
176
     1
 67
     7
176
     1
 79
     5
176
     1
170
     0
176
     1
171
     0
176
     1
290
     0
176
     1
 93
        1
176
     1
 44
-50.0
176
     1
173
     0
176
     1
  0
VISUALSTYLE
  5
39
102
{ACAD_REACTORS
330
2A
102
}
330
2A
100
AcDbVisualStyle
  2
Facepattern
 70
    15
177
     2
291
     1
 71
     2
176
     1
 72
     2
176
     1
 73
     0
176
     1
 90
        0
176
     1
 40
-0.6
176
     1
 41
-30.0
176
     1
 62
     5
 63
     7
421
 16777215
176
     1
 74
     1
176
     1
 91
        4
176
     1
 64
     7
176
     1
 65
   257
176
     1
 75
     1
176
     1
175
     1
176
     1
 42
1.0
176
     1
 92
        8
176
     1
 66
     7
176
     1
 43
1.0
176
     1
 76
     1
176
     1
 77
     6
176
     1
 78
     2
176
     1
 67
     7
176
     1
 79
     5
176
     1
170
     0
176
     1
171
     0
176
     1
290
     0
176
     1
 93
        1
176
     1
 44
0.0
176
     1
173
     0
176
     1
  0
VISUALSTYLE
  5
2B
102
{ACAD_REACTORS
330
2A
102
}
330
2A
100
AcDbVisualStyle
  2
Flat
 70
     0
177
     2
291
     1
 71
     2
176
     1
 72
     1
176
     1
 73
     1
176
     1
 90
        2
176
     1
 40
-0.6
176
     1
 41
30.0
176
     1
 62
     5
 63
     7
421
 16777215
176
     1
 74
     0
176
     1
 91
        4
176
     1
 64
     7
176
     1
 65
   257
176
     1
 75
     1
176
     1
175
     1
176
     1
 42
1.0
176
     1
 92
        8
176
     1
 66
     7
176
     1
 43
1.0
176
     1
 76
     1
176
     1
 77
     6
176
     1
 78
     2
176
     1
 67
     7
176
     1
 79
     5
176
     1
170
     0
176
     1
171
     0
176
     1
290
     0
176
     1
 93
       13
176
     1
 44
0.0
176
     1
173
     0
176
     1
  0
VISUALSTYLE
  5
2C
102
{ACAD_REACTORS
330
2A
102
}
330
2A
100
AcDbVisualStyle
  2
FlatWithEdges
 70
     1
177
     2
291
     1
 71
     2
176
     1
 72
     1
176
     1
 73
     1
176
     1
 90
        2
176
     1
 40
-0.6
176
     1
 41
30.0
176
     1
 62
     5
 63
     7
421
 16777215
176
     1
 74
     1
176
     1
 91
        4
176
     1
 64
     7
176
     1
 65
   257
176
     1
 75
     1
176
     1
175
     1
176
     1
 42
1.0
176
     1
 92
        0
176
     1
 66
   257
176
     1
 43
1.0
176
     1
 76
     1
176
     1
 77
     6
176
     1
 78
     2
176
     1
 67
     7
176
     1
 79
     5
176
     1
170
     0
176
     1
171
     0
176
     1
290
     0
176
     1
 93
       13
176
     1
 44
0.0
176
     1
173
     0
176
     1
  0
VISUALSTYLE
  5
2D
102
{ACAD_REACTORS
330
2A
102
}
330
2A
100
AcDbVisualStyle
  2
Gouraud
 70
     2
177
     2
291
     1
 71
     2
176
     1
 72
     2
176
     1
 73
     1
176
     1
 90
        2
176
     1
 40
-0.6
176
     1
 41
30.0
176
     1
 62
     5
 63
     7
421
 16777215
176
     1
 74
     0
176
     1
 91
        4
176
     1
 64
     7
176
     1
 65
   257
176
     1
 75
     1
176
     1
175
     1
176
     1
 42
1.0
176
     1
 92
        0
176
     1
 66
     7
176
     1
 43
1.0
176
     1
 76
     1
176
     1
 77
     6
176
     1
 78
     2
176
     1
 67
     7
176
     1
 79
     5
176
     1
170
     0
176
     1
171
     0
176
     1
290
     0
176
     1
 93
       13
176
     1
 44
0.0
176
     1
173
     0
176
     1
  0
VISUALSTYLE
  5
2E
102
{ACAD_REACTORS
330
2A
102
}
330
2A
100
AcDbVisualStyle
  2
GouraudWithEdges
 70
     3
177
     2
291
     1
 71
     2
176
     1
 72
     2
176
     1
 73
     1
176
     1
 90
        2
176
     1
 40
-0.6
176
     1
 41
30.0
176
     1
 62
     5
 63
     7
421
 16777215
176
     1
 74
     1
176
     1
 91
        4
176
     1
 64
     7
176
     1
 65
   257
176
     1
 75
     1
176
     1
175
     1
176
     1
 42
1.0
176
     1
 92
        0
176
     1
 66
   257
176
     1
 43
1.0
176
     1
 76
     1
176
     1
 77
     6
176
     1
 78
     2
176
     1
 67
     7
176
     1
 79
     5
176
     1
170
     0
176
     1
171
     0
176
     1
290
     0
176
     1
 93
       13
176
     1
 44
0.0
176
     1
173
     0
176
     1
  0
VISUALSTYLE
  5
38
102
{ACAD_REACTORS
330
2A
102
}
330
2A
100
AcDbVisualStyle
  2
Linepattern
 70
    14
177
     2
291
     1
 71
     2
176
     1
 72
     2
176
     1
 73
     0
176
     1
 90
        0
176
     1
 40
-0.6
176
     1
 41
-30.0
176
     1
 62
     5
 63
     7
421
 16777215
176
     1
 74
     1
176
     1
 91
        4
176
     1
 64
     7
176
     1
 65
   257
176
     1
 75
     7
176
     1
175
     7
176
     1
 42
1.0
176
     1
 92
        8
176
     1
 66
     7
176
     1
 43
1.0
176
     1
 76
     1
176
     1
 77
     6
176
     1
 78
     2
176
     1
 67
     7
176
     1
 79
     5
176
     1
170
     0
176
     1
171
     0
176
     1
290
     0
176
     1
 93
        1
176
     1
 44
0.0
176
     1
173
     0
176
     1
  0
VISUALSTYLE
  5
33
102
{ACAD_REACTORS
330
2A
102
}
330
2A
100
AcDbVisualStyle
  2
Realistic
 70
     8
177
     2
291
     0
 71
     2
176
     1
 72
     2
176
     1
 73
     0
176
     1
 90
        0
176
     1
 40
-0.6
176
     1
 41
-30.0
176
     1
 62
     5
 63
     7
421
 16777215
176
     1
 74
     1
176
     1
 91
        0
176
     1
 64
     7
176
     1
 65
   257
176
     1
 75
     1
176
     1
175
     1
176
     1
 42
1.0
176
     1
 92
        8
176
     1
 66
     8
424
  7895160
176
     1
 43
1.0
176
     1
 76
     1
176
     1
 77
     6
176
     1
 78
     2
176
     1
 67
     7
176
     1
 79
     5
176
     1
170
     0
176
     1
171
     0
176
     1
290
     0
176
     1
 93
       13
176
     1
 44
0.0
176
     1
173
     0
176
     1
  0
VISUALSTYLE
  5
37
102
{ACAD_REACTORS
330
2A
102
}
330
2A
100
AcDbVisualStyle
  2
Thicken
 70
    13
177
     2
291
     1
 71
     2
176
     1
 72
     2
176
     1
 73
     0
176
     1
 90
        0
176
     1
 40
-0.6
176
     1
 41
-30.0
176
     1
 62
     5
 63
     7
421
 16777215
176
     1
 74
     1
176
     1
 91
        4
176
     1
 64
     7
176
     1
 65
   257
176
     1
 75
     1
176
     1
175
     1
176
     1
 42
1.0
176
     1
 92
       12
176
     1
 66
     7
176
     1
 43
1.0
176
     1
 76
     1
176
     1
 77
     6
176
     1
 78
     2
176
     1
 67
     7
176
     1
 79
     5
176
     1
170
     0
176
     1
171
     0
176
     1
290
     0
176
     1
 93
        1
176
     1
 44
0.0
176
     1
173
     0
176
     1
  0
ENDSEC
  0
EOF
